<!-- <?xml version="1.0" encoding="utf-8"?> -->

<svg   version="1.1" id="BG" xmlns="http://www.w3.org/2000/svg" xmlns:xlink="http://www.w3.org/1999/xlink" x="0px" y="0px"
	 viewBox="0 0 1920 1080" style="enable-background:new 0 0 1920 1080;" xml:space="preserve">
<style type="text/css">
	.st0{fill:#6AEE00;}
	.st1{fill:#FFFFFF;}
</style>
<g>
	<g>
		<path class="st0" d="M655.2,389.9c7.6,4,13.6,9.7,17.9,17.1c4.3,7.4,6.4,16,6.4,25.8c0,9.7-2.1,18.2-6.4,25.6
			c-4.3,7.3-10.2,13-17.9,17c-7.7,4-16.4,6-26.3,6H612v38.4c0,1.6-0.5,2.9-1.4,3.8c-0.9,0.9-2.2,1.3-3.9,1.3H582
			c-1.6,0-2.8-0.4-3.7-1.3c-0.9-0.9-1.3-2.2-1.3-3.8V389.1c0-1.5,0.5-2.7,1.4-3.7c0.9-1,2.1-1.5,3.6-1.5h12.4H607h21.9
			C638.7,383.9,647.5,385.9,655.2,389.9z M636.2,447.4c2.6-1.5,4.7-3.5,6.2-6.1c1.5-2.6,2.2-5.5,2.2-8.7c0-3.2-0.7-6.1-2.2-8.7
			c-1.5-2.6-3.5-4.6-6.2-6.1c-2.6-1.5-5.6-2.2-8.8-2.2H612v34h15.4C630.6,449.6,633.5,448.9,636.2,447.4z"/>
		<path class="st0" d="M806,521.4c0,1-0.4,1.9-1.1,2.5c-0.7,0.6-1.8,1-3.1,1h-27.4c-1.3,0-2.6-0.4-3.7-1.3c-1.1-0.9-1.9-2-2.5-3.3
			l-6.4-18.5h-48.9l-6.3,18.4c-0.4,1.3-1.2,2.5-2.3,3.3s-2.5,1.3-4,1.3h-27.3c-1.3,0-2.4-0.3-3.1-0.9c-0.7-0.6-1.1-1.5-1.1-2.6
			c0-0.6,0.2-1.4,0.5-2.2l51.5-130.6c0.6-1.5,1.6-2.6,2.7-3.5c1.2-0.8,2.5-1.3,3.8-1.3h20.3c1.3,0,2.6,0.4,3.8,1.3
			c1.2,0.9,2,2,2.6,3.4l51.4,130.7C805.8,520.1,806,520.8,806,521.4z M751.9,472.7L737.3,430l-14.6,42.7H751.9z"/>
		<path class="st0" d="M794,389c0-1.6,0.4-2.9,1.3-3.8c0.9-0.9,2.2-1.3,3.8-1.3h94.1c1.6,0,2.9,0.5,3.8,1.3c0.9,0.9,1.3,2.2,1.3,3.8
			v23.2c0,1.6-0.5,2.9-1.3,3.8c-0.9,0.9-2.2,1.4-3.8,1.4h-29.6v103.5c0,1.7-0.5,2.9-1.3,3.8c-0.9,0.9-2.2,1.3-3.9,1.3h-24.7
			c-1.6,0-2.9-0.5-3.8-1.3c-0.9-0.9-1.3-2.2-1.3-3.8V417.4h-29.5c-1.6,0-2.9-0.5-3.8-1.4c-0.9-0.9-1.3-2.2-1.3-3.8V389z"/>
		<path class="st0" d="M949.4,521c0,2.5-1.2,3.8-3.7,3.8h-27.5c-1.2,0-2.2-0.3-2.8-1c-0.6-0.6-1-1.6-1-2.8V387.6
			c0-2.4,1.3-3.7,3.8-3.7h27.5c2.4,0,3.7,1.2,3.7,3.7V521z"/>
		<path class="st0" d="M973,389c0-1.6,0.4-2.9,1.3-3.8c0.9-0.9,2.2-1.3,3.8-1.3h90.7c1.6,0,2.9,0.5,3.8,1.3c0.9,0.9,1.3,2.2,1.3,3.8
			v22.2c0,1.6-0.4,2.9-1.3,3.8c-0.9,0.9-2.1,1.3-3.8,1.3h-61.2v23.3h46.5c1.7,0,3.1,0.5,4.1,1.4c1,0.9,1.5,2.2,1.5,3.9v18.3
			c0,1.6-0.5,2.9-1.5,3.8c-1,0.9-2.4,1.3-4.1,1.3h-46.5v24h61.2c2.2,0,3.9,0.6,5.2,1.8c1.3,1.2,1.9,2.8,1.9,4.8v20.8
			c0,1.5-0.5,2.8-1.4,3.7c-0.9,0.9-2.2,1.3-3.8,1.3h-92.6c-1.6,0-2.9-0.4-3.8-1.3c-0.9-0.9-1.3-2.1-1.3-3.7V389z"/>
		<path class="st0" d="M1220.8,384.8c0.6,0.6,1,1.6,1,2.8v133.4c0,1.2-0.3,2.2-1,2.8c-0.7,0.6-1.6,1-2.7,1h-26.2
			c-3,0-5.5-1.4-7.3-4.3l-54.2-82.4v83c0,1.2-0.3,2.2-1,2.8c-0.7,0.6-1.6,1-2.7,1h-27.5c-1.2,0-2.1-0.3-2.7-1c-0.7-0.6-1-1.6-1-2.8
			V387.6c0-1.2,0.3-2.2,1-2.8c0.7-0.6,1.6-1,2.7-1h28.4c2.8,0,5.2,1.5,7.2,4.5l52.2,77.5v-78.3c0-1.2,0.3-2.2,1-2.8
			c0.6-0.6,1.5-1,2.7-1h27.5C1219.3,383.9,1220.2,384.2,1220.8,384.8z"/>
		<path class="st0" d="M1238.1,389c0-1.6,0.4-2.9,1.3-3.8c0.9-0.9,2.2-1.3,3.8-1.3h94.1c1.6,0,2.9,0.5,3.8,1.3
			c0.9,0.9,1.3,2.2,1.3,3.8v23.2c0,1.6-0.5,2.9-1.3,3.8c-0.9,0.9-2.2,1.4-3.8,1.4h-29.6v103.5c0,1.7-0.5,2.9-1.3,3.8
			c-0.9,0.9-2.2,1.3-3.9,1.3h-24.7c-1.6,0-2.9-0.5-3.8-1.3c-0.9-0.9-1.3-2.2-1.3-3.8V417.4h-29.5c-1.6,0-2.9-0.5-3.8-1.4
			c-0.9-0.9-1.3-2.2-1.3-3.8V389z"/>
		<path class="st1" d="M1469.8,504.4c0.6,0.6,0.9,1.4,0.9,2.5v14.6c0,1-0.3,1.9-0.9,2.5c-0.6,0.6-1.5,0.9-2.6,0.9h-107
			c-1.1,0-1.9-0.3-2.6-0.9c-0.6-0.6-0.9-1.4-0.9-2.4v-10.2c0-0.8,0.1-1.5,0.4-2.2c0.3-0.7,0.6-1.3,1-1.7l79.4-102.4h-75
			c-1.1,0-1.9-0.3-2.6-0.9c-0.6-0.6-0.9-1.4-0.9-2.4v-14.4c0-1.1,0.3-1.9,0.9-2.6c0.6-0.6,1.5-0.9,2.6-0.9h103.9
			c1.1,0,1.9,0.3,2.5,0.9s0.9,1.4,0.9,2.4v9.8c0,1.5-0.4,2.7-1.1,3.6l-79.8,103h78.3C1468.4,503.5,1469.2,503.8,1469.8,504.4z"/>
		<path class="st1" d="M1496.1,387.4c0-2.4,1.2-3.6,3.7-3.6h89c1.2,0,2.2,0.3,2.8,0.9c0.7,0.6,1,1.5,1,2.7v12.9c0,1.2-0.3,2.1-1,2.7
			c-0.7,0.6-1.6,1-2.8,1h-71v39.2h56.5c1.3,0,2.4,0.3,3.1,0.9c0.7,0.6,1.1,1.5,1.1,2.7v12.9c0,1.1-0.4,2-1.2,2.6
			c-0.8,0.6-1.8,1-3.1,1h-56.5v41.2h71.8c1.5,0,2.8,0.4,3.7,1.2c0.9,0.8,1.3,1.9,1.3,3.3l-0.1,12.1c0.1,1.2-0.3,2.1-1,2.7
			c-0.7,0.6-1.7,1-2.8,1h-90.9c-2.4,0-3.7-1.2-3.7-3.7V387.4z"/>
		<path class="st1" d="M1716.3,522.1c0,0.8-0.3,1.4-0.8,1.9c-0.5,0.5-1.2,0.8-2,0.8h-17.6c-0.9,0-1.7-0.2-2.3-0.7
			c-0.6-0.4-1.2-1.2-1.9-2.3l-23.4-44.4h-1.6h-27v43.8c0,1.2-0.3,2.1-0.9,2.7c-0.6,0.6-1.5,1-2.7,1h-14.6c-2.3,0-3.5-1.2-3.5-3.7
			V387.5c0-1.1,0.3-2,1-2.7c0.6-0.7,1.5-1,2.5-1h3.8h11.3h30.1c9.4,0,17.8,2,25.2,5.9c7.4,3.9,13.1,9.4,17.3,16.6
			c4.1,7.1,6.2,15.3,6.2,24.5c0,9.5-2.2,17.9-6.7,25.1c-4.5,7.2-10.6,12.7-18.5,16.4l25.8,48.3
			C1716.2,521.1,1716.3,521.6,1716.3,522.1z M1639.7,456.8h27c5.1,0,9.7-1.1,13.8-3.4c4.1-2.2,7.3-5.3,9.5-9.3
			c2.3-3.9,3.4-8.4,3.4-13.3c0-5.1-1.1-9.6-3.4-13.6c-2.3-4-5.5-7.1-9.5-9.4c-4.1-2.2-8.7-3.4-13.8-3.4h-27V456.8z"/>
		<path class="st1" d="M1741.9,417.8c6.5-11.2,15.3-20,26.4-26.4c11.1-6.5,23.4-9.7,36.8-9.7c13.4,0,25.6,3.2,36.8,9.7
			c11.1,6.5,20,15.3,26.4,26.4c6.5,11.2,9.7,23.4,9.7,36.9c0,13.4-3.2,25.6-9.7,36.7c-6.5,11.1-15.3,19.8-26.4,26.3
			c-11.2,6.4-23.4,9.6-36.8,9.6c-13.4,0-25.6-3.2-36.8-9.6c-11.2-6.4-20-15.2-26.4-26.3c-6.5-11.1-9.7-23.3-9.7-36.7
			C1732.2,441.2,1735.4,428.9,1741.9,417.8z M1760.8,480.4c4.5,7.8,10.7,13.9,18.5,18.4c7.8,4.5,16.4,6.7,25.9,6.7
			c9.4,0,18-2.2,25.8-6.7c7.8-4.5,14-10.6,18.5-18.4c4.5-7.8,6.8-16.4,6.8-25.7c0-9.4-2.3-18-6.8-25.8c-4.5-7.8-10.7-14-18.5-18.6
			s-16.4-6.8-25.8-6.8c-9.4,0-18.1,2.3-25.9,6.8s-14,10.7-18.5,18.6c-4.5,7.8-6.7,16.5-6.7,25.8C1754,464,1756.3,472.6,1760.8,480.4
			z"/>
		<path class="st1" d="M570.5,672c0-0.5,0.2-1.1,0.6-1.6l5.3-7.7c0.6-0.7,1.2-1.1,1.9-1.1c0.6,0,1.2,0.2,1.9,0.7
			c3,2.5,6.8,4.6,11.4,6.2c4.6,1.7,9.4,2.5,14.6,2.5c4.1,0,7.8-0.5,11.1-1.6c3.3-1.1,5.9-2.7,7.9-4.7c1.9-2.1,2.9-4.6,2.9-7.5
			c0-2.9-1.1-5.3-3.3-7.2c-2.2-1.9-4.9-3.5-8-4.6c-3.2-1.1-7.2-2.3-12-3.6c-6.6-1.8-12.1-3.7-16.5-5.8c-4.3-2.1-7.7-4.8-10.2-8.1
			c-2.4-3.3-3.7-7.5-3.7-12.6c0-5.5,1.4-10.3,4.3-14.3c2.8-4,6.8-7.1,11.9-9.2c5.1-2.1,10.9-3.2,17.5-3.2c5.7,0,11.2,0.8,16.5,2.4
			c5.3,1.6,9.8,3.8,13.6,6.7c0.7,0.6,1.1,1.3,1.1,2c0,0.5-0.2,1.1-0.6,1.7l-5.4,7.7c-0.6,0.8-1.2,1.2-2,1.2c-0.5,0-1.1-0.2-1.9-0.6
			c-2.6-1.6-4.8-2.8-6.8-3.7c-1.9-0.9-4.1-1.6-6.4-2c-2.3-0.5-5-0.7-8.2-0.7c-3.4,0-6.6,0.5-9.5,1.5c-2.9,1-5.2,2.4-6.9,4.2
			c-1.7,1.8-2.6,3.9-2.6,6.3c0,2.6,1,4.7,2.9,6.4c1.9,1.7,4.2,3.1,6.9,4c2.7,1,6.1,2,10.2,3c7.4,2.1,13.4,4.2,18.1,6.3
			c4.7,2.1,8.5,4.9,11.4,8.5c2.9,3.6,4.4,8.1,4.4,13.6c0,5.9-1.6,10.9-4.8,15.3c-3.2,4.3-7.6,7.6-13.2,9.9
			c-5.6,2.3-11.8,3.4-18.6,3.4c-6.7,0-12.7-0.9-18.1-2.8c-5.4-1.9-10.8-4.7-16.1-8.6C571,673.6,570.5,672.9,570.5,672z"/>
		<path class="st1" d="M692.1,592c0-1.6,0.8-2.4,2.5-2.4h60.1c0.8,0,1.5,0.2,1.9,0.6c0.5,0.4,0.7,1,0.7,1.8v8.7
			c0,0.8-0.2,1.4-0.7,1.8c-0.5,0.4-1.1,0.7-1.9,0.7h-47.9v26.5h38.1c0.9,0,1.6,0.2,2.1,0.6c0.5,0.4,0.8,1,0.8,1.8v8.7
			c0,0.7-0.3,1.3-0.8,1.8c-0.5,0.4-1.2,0.7-2.1,0.7h-38.1V671h48.5c1,0,1.9,0.3,2.5,0.8c0.6,0.5,0.9,1.3,0.9,2.2l-0.1,8.2
			c0,0.8-0.2,1.4-0.7,1.8c-0.5,0.4-1.1,0.7-1.9,0.7h-61.4c-1.6,0-2.5-0.8-2.5-2.5V592z"/>
		<path class="st1" d="M872.9,663.9c0.7,0,1.3,0.3,1.7,0.8l5.7,8.4c0.2,0.2,0.3,0.5,0.3,0.8c0,0.4-0.1,0.9-0.4,1.3
			c-0.2,0.4-0.6,0.8-1,1.1c-3.7,3.1-8.2,5.6-13.5,7.4s-10.5,2.7-15.5,2.7c-9.1,0-17.4-2.2-25-6.6c-7.6-4.4-13.6-10.3-18.1-17.8
			c-4.4-7.5-6.6-15.8-6.6-24.7c0-9,2.2-17.3,6.6-24.8c4.4-7.5,10.5-13.5,18.1-17.9c7.6-4.4,15.9-6.6,25-6.6c4.8,0,9.9,0.9,15.2,2.8
			c5.3,1.9,10,4.3,14.1,7.4c0.9,0.7,1.3,1.4,1.3,2.2c0,0.4-0.1,0.7-0.3,1l-5.9,8.3c-0.3,0.6-0.9,0.8-1.6,0.8c-0.6,0-1.3-0.3-1.9-0.8
			c-3.2-2.3-6.6-4.2-10.2-5.6c-3.7-1.4-7.2-2-10.6-2c-6.4,0-12.3,1.6-17.6,4.7c-5.3,3.1-9.6,7.4-12.7,12.7
			c-3.1,5.4-4.7,11.3-4.7,17.7c0,6.4,1.6,12.2,4.7,17.6c3.1,5.3,7.4,9.6,12.7,12.7c5.4,3.1,11.2,4.7,17.6,4.7c3.4,0,6.9-0.7,10.6-2
			c3.7-1.3,7-3.2,10.1-5.5C871.5,664.1,872.2,663.9,872.9,663.9z"/>
		<path class="st1" d="M942.7,646.6c0,4.9,1,9.3,3.1,13.2c2,3.9,4.9,6.9,8.6,9.1c3.7,2.2,8,3.3,12.8,3.3c4.8,0,9.1-1.1,12.8-3.3
			c3.7-2.2,6.5-5.3,8.6-9.1c2-3.9,3-8.3,3-13.2v-55.1c0-1.3,0.7-2,2-2h10.6c1.3,0,2,0.7,2,2v55.2c0,7.9-1.6,14.9-4.8,20.9
			c-3.2,6-7.8,10.7-13.7,14s-12.7,4.9-20.4,4.9c-8,0-14.9-1.6-20.8-4.9c-5.9-3.3-10.4-8-13.6-14c-3.1-6.1-4.7-13.1-4.7-21.1v-54.9
			c0-1.3,0.6-2,1.8-2h11c1.2,0,1.8,0.7,1.8,2V646.6z"/>
		<path class="st1" d="M1124.2,682.9c0,0.5-0.2,1-0.5,1.3c-0.4,0.3-0.8,0.5-1.4,0.5h-11.9c-0.6,0-1.1-0.1-1.5-0.5
			c-0.4-0.3-0.8-0.8-1.3-1.6l-15.8-30h-1.1h-18.2v29.5c0,0.8-0.2,1.4-0.6,1.8c-0.4,0.4-1,0.7-1.8,0.7h-9.8c-1.6,0-2.3-0.8-2.3-2.5
			v-90.2c0-0.7,0.2-1.3,0.7-1.8c0.4-0.5,1-0.7,1.7-0.7h2.5h7.6h20.3c6.3,0,12,1.3,17,4c5,2.6,8.9,6.4,11.6,11.2
			c2.8,4.8,4.2,10.3,4.2,16.5c0,6.4-1.5,12.1-4.5,17c-3,4.9-7.2,8.6-12.5,11.1l17.4,32.6C1124.1,682.2,1124.2,682.6,1124.2,682.9z
			 M1072.4,638.8h18.2c3.5,0,6.6-0.8,9.3-2.3c2.8-1.5,4.9-3.6,6.4-6.2c1.5-2.7,2.3-5.6,2.3-9c0-3.4-0.8-6.5-2.3-9.2
			c-1.5-2.7-3.7-4.8-6.4-6.3c-2.8-1.5-5.9-2.3-9.3-2.3h-18.2V638.8z"/>
		<path class="st1" d="M1189,682.8c0,1.3-0.6,2-1.8,2h-10.9c-0.6,0-1-0.2-1.3-0.5c-0.3-0.3-0.5-0.8-0.5-1.4v-91.2c0-1.3,0.6-2,1.8-2
			h10.9c1.2,0,1.8,0.7,1.8,2V682.8z"/>
		<path class="st1" d="M1236.2,592c0-0.8,0.2-1.4,0.7-1.8c0.4-0.4,1-0.6,1.8-0.6h62.1c0.7,0,1.3,0.2,1.8,0.7c0.4,0.4,0.7,1,0.7,1.8
			v9.4c0,0.8-0.2,1.4-0.7,1.9c-0.4,0.5-1,0.7-1.8,0.7h-23.7v78.9c0,0.8-0.2,1.4-0.7,1.9c-0.4,0.4-1,0.6-1.8,0.6h-9.8
			c-0.8,0-1.4-0.2-1.8-0.6c-0.4-0.4-0.7-1-0.7-1.9v-78.9h-23.7c-0.7,0-1.3-0.2-1.8-0.7c-0.5-0.4-0.7-1-0.7-1.8V592z"/>
		<path class="st1" d="M1420,591c0,0.4-0.1,0.9-0.4,1.5l-31.2,53.9v35.8c0,1.6-0.8,2.5-2.3,2.5h-9.9c-0.8,0-1.4-0.2-1.8-0.6
			c-0.4-0.4-0.7-1-0.7-1.9v-35.8l-31.2-54c-0.3-0.6-0.5-1.1-0.5-1.5c0-0.4,0.2-0.8,0.5-1s0.9-0.4,1.5-0.4h11.6
			c0.6,0,1.1,0.2,1.6,0.6c0.5,0.4,0.9,0.9,1.3,1.5l22.5,40l22.4-40c0.3-0.7,0.8-1.2,1.3-1.6s1.1-0.5,1.7-0.5h11.5
			C1419.3,589.5,1420,590,1420,591z"/>
	</g>
	<g>
		<path class="st0" d="M243.5,764.9c-1.6,0-3.3-0.2-4.9-0.6c-3.8-0.9-94-23.7-154.9-111.5c-61-88.1-37.5-263.6-36.4-271.1
			c1.1-8.2,7-14.9,14.9-17.1l175.7-48.9c3.6-1,7.5-1,11.1,0l175.7,48.9c7.9,2.2,13.8,8.9,14.9,17.1h0c1,7.4,24.6,182.9-36.4,271.1
			c-60.9,87.9-151,110.6-154.9,111.5C246.7,764.7,245.1,764.9,243.5,764.9z M243.5,327.9c-0.7,0-1.4,0.1-2.1,0.3L65.7,377
			c-3,0.8-5.3,3.4-5.7,6.5c-1,7.2-23.9,177.9,34.3,262C152.4,729.5,238,751,241.6,751.9c1.2,0.3,2.5,0.3,3.7,0
			c3.6-0.9,89.2-22.4,147.3-106.4c58.2-84.1,35.3-254.8,34.3-262l0,0c-0.4-3.1-2.7-5.7-5.7-6.5l-175.7-48.9
			C244.9,328,244.2,327.9,243.5,327.9z"/>
		<path class="st0" d="M298,608.1c-9-0.8-17,3.4-21.7,10.2c-2.3,3.3-6.1,5.3-10.2,5.3l-45.4,0c-4,0-7.9-1.9-10.1-5.2
			c-1.6-2.3-3.6-4.3-5.8-6c-3.2-2.3-5-6.1-5-10.1l-0.1-38.6c0-6.9,5.6-12.5,12.5-12.5h37.2c33.2,0,60.2-24.9,60.2-55.5
			s-27-55.5-60.2-55.5l-28.6,0c-4.1,0-7.9-2-10.2-5.3c-4.7-6.8-12.7-11-21.7-10.2c-11.1,1-20.1,9.8-21.4,20.9
			c-1.6,14.3,9.6,26.4,23.5,26.4c8.1,0,15.3-4.1,19.6-10.4c2.3-3.3,6.1-5.2,10.1-5.2h28.6c24.2,0,44,17.6,44,39.3
			s-19.7,39.3-44,39.3h-53.5c-6.9,0-12.5,5.6-12.5,12.5l0.1,54c0,4.2-2.1,8.1-5.5,10.4c-7.3,4.8-11.8,13.5-10.4,23.1
			c1.4,10.3,9.7,18.6,19.9,20.1c9.5,1.4,18.2-2.9,23-10c2.3-3.3,6.1-5.3,10.2-5.3h45.4c4,0,7.9,1.9,10.1,5.2
			c4.3,6.3,11.4,10.4,19.6,10.4c14,0,25.2-12.2,23.5-26.4C318.2,617.9,309.1,609.1,298,608.1z M191.1,455.8c-4.1,0-7.5-3.4-7.5-7.5
			c0-4.1,3.4-7.5,7.5-7.5c4.1,0,7.5,3.4,7.5,7.5C198.6,452.4,195.2,455.8,191.1,455.8z M191.1,639.2c-4.1,0-7.5-3.4-7.5-7.5
			s3.4-7.5,7.5-7.5c4.1,0,7.5,3.4,7.5,7.5S195.2,639.2,191.1,639.2z M295.9,639.2c-4.1,0-7.5-3.4-7.5-7.5s3.4-7.5,7.5-7.5
			s7.5,3.4,7.5,7.5S300,639.2,295.9,639.2z"/>
	</g>
</g>
</svg>
